<svg xmlns="http://www.w3.org/2000/svg" viewBox="0 0 100 100" role="img" aria-labelledby="title desc">
  <title id="title">St Nicholas of Tolentino parish mark</title>
  <desc id="desc">A navy roundel with a gold star and white lily.</desc>
  <circle cx="50" cy="50" r="48" fill="#1F3A5F"/>
  <polygon fill="#C8A45C" points="50,10 56,31 78,22 66,41 88,50 66,59 78,78 56,69 50,90 44,69 22,78 34,59 12,50 34,41 22,22 44,31"/>
  <path fill="none" stroke="#FFFFFF" stroke-linecap="round" stroke-linejoin="round" stroke-width="4.2" d="M50 67V35"/>
  <path fill="#FFFFFF" d="M50 29c-7 2-10 8-10 13 4-1 7-3 10-8 3 5 6 7 10 8 0-5-3-11-10-13Z"/>
  <path fill="#FFFFFF" d="M39 41c-5 0-10 4-12 10 5 0 10-3 12-10Z"/>
  <path fill="#FFFFFF" d="M61 41c5 0 10 4 12 10-5 0-10-3-12-10Z"/>
</svg>
